<svg width="40" height="38" viewBox="0 0 40 38" fill="none" xmlns="http://www.w3.org/2000/svg">
<path d="M15.8332 30.6667C15.6122 30.6667 15.4002 30.7545 15.2439 30.9108C15.0876 31.067 14.9998 31.279 14.9998 31.5V33.1667C14.9998 33.3877 15.0876 33.5997 15.2439 33.7559C15.4002 33.9122 15.6122 34 15.8332 34C16.0542 34 16.2661 33.9122 16.4224 33.7559C16.5787 33.5997 16.6665 33.3877 16.6665 33.1667V31.5C16.6665 31.279 16.5787 31.067 16.4224 30.9108C16.2661 30.7545 16.0542 30.6667 15.8332 30.6667ZM38.9332 10.4834L36.9498 2.56669C36.8162 2.02606 36.5058 1.54554 36.0681 1.20134C35.6303 0.857142 35.0901 0.668975 34.5332 0.666687H5.4665C4.90961 0.668975 4.36942 0.857142 3.93162 1.20134C3.49382 1.54554 3.18349 2.02606 3.04983 2.56669L1.0665 10.4834C0.828342 11.4198 0.924444 12.4101 1.33823 13.2833C1.75202 14.1565 2.45756 14.858 3.33317 15.2667V33.1667C3.33317 34.2718 3.77215 35.3316 4.55356 36.113C5.33496 36.8944 6.39477 37.3334 7.49984 37.3334H32.4998C33.6049 37.3334 34.6647 36.8944 35.4461 36.113C36.2275 35.3316 36.6665 34.2718 36.6665 33.1667V15.2667C37.5421 14.858 38.2476 14.1565 38.6614 13.2833C39.0752 12.4101 39.1713 11.4198 38.9332 10.4834ZM18.3332 35.6667H9.99984V21.5C9.99984 21.279 10.0876 21.067 10.2439 20.9108C10.4002 20.7545 10.6122 20.6667 10.8332 20.6667H17.4998C17.7208 20.6667 17.9328 20.7545 18.0891 20.9108C18.2454 21.067 18.3332 21.279 18.3332 21.5V35.6667ZM34.9998 33.1667C34.9998 33.8297 34.7364 34.4656 34.2676 34.9345C33.7988 35.4033 33.1629 35.6667 32.4998 35.6667H19.9998V21.5C19.9998 20.837 19.7364 20.2011 19.2676 19.7323C18.7988 19.2634 18.1629 19 17.4998 19H10.8332C10.1701 19 9.53424 19.2634 9.0654 19.7323C8.59656 20.2011 8.33317 20.837 8.33317 21.5V35.6667H7.49984C6.83679 35.6667 6.20091 35.4033 5.73207 34.9345C5.26323 34.4656 4.99983 33.8297 4.99983 33.1667V15.6667H34.9998V33.1667ZM36.8665 13.0334C36.6345 13.3342 36.3365 13.5778 35.9956 13.7454C35.6546 13.9129 35.2798 14.0001 34.8998 14H5.09983C4.72133 13.9985 4.34813 13.911 4.00836 13.7442C3.6686 13.5774 3.37114 13.3356 3.13843 13.0371C2.90572 12.7386 2.74382 12.3911 2.66496 12.0209C2.5861 11.6507 2.59232 11.2675 2.68317 10.9L4.6665 2.96669C4.71082 2.7874 4.81343 2.6279 4.95824 2.51327C5.10304 2.39863 5.28182 2.33535 5.4665 2.33335H34.5332C34.7207 2.33163 34.9033 2.39321 35.0515 2.50814C35.1997 2.62307 35.3048 2.78463 35.3498 2.96669L37.3332 10.9C37.4231 11.2677 37.4278 11.651 37.3469 12.0207C37.266 12.3905 37.1017 12.7368 36.8665 13.0334ZM30.8332 19H25.8332C25.1701 19 24.5342 19.2634 24.0654 19.7323C23.5966 20.2011 23.3332 20.837 23.3332 21.5V24.8334C23.3332 25.4964 23.5966 26.1323 24.0654 26.6011C24.5342 27.07 25.1701 27.3334 25.8332 27.3334H30.8332C31.4962 27.3334 32.1321 27.07 32.6009 26.6011C33.0698 26.1323 33.3332 25.4964 33.3332 24.8334V21.5C33.3332 20.837 33.0698 20.2011 32.6009 19.7323C32.1321 19.2634 31.4962 19 30.8332 19ZM31.6665 24.8334C31.6665 25.0544 31.5787 25.2663 31.4224 25.4226C31.2661 25.5789 31.0542 25.6667 30.8332 25.6667H25.8332C25.6122 25.6667 25.4002 25.5789 25.2439 25.4226C25.0876 25.2663 24.9998 25.0544 24.9998 24.8334V21.5C24.9998 21.279 25.0876 21.067 25.2439 20.9108C25.4002 20.7545 25.6122 20.6667 25.8332 20.6667H30.8332C31.0542 20.6667 31.2661 20.7545 31.4224 20.9108C31.5787 21.067 31.6665 21.279 31.6665 21.5V24.8334Z" fill="#563517"/>
</svg>
