<svg width="38" height="38" viewBox="0 0 38 38" fill="none" xmlns="http://www.w3.org/2000/svg">
<path d="M35.5 0.5H3C2.33696 0.5 1.70107 0.763392 1.23223 1.23223C0.763392 1.70107 0.5 2.33696 0.5 3V35.5C0.5 36.163 0.763392 36.7989 1.23223 37.2678C1.70107 37.7366 2.33696 38 3 38H35.5C36.163 38 36.7989 37.7366 37.2678 37.2678C37.7366 36.7989 38 36.163 38 35.5V3C38 2.33696 37.7366 1.70107 37.2678 1.23223C36.7989 0.763392 36.163 0.5 35.5 0.5ZM35.5 35.5H3V3H35.5V35.5ZM9.25 20.5H29.25C29.5815 20.5 29.8995 20.3683 30.1339 20.1339C30.3683 19.8995 30.5 19.5815 30.5 19.25C30.5 18.9185 30.3683 18.6005 30.1339 18.3661C29.8995 18.1317 29.5815 18 29.25 18H9.25C8.91848 18 8.60054 18.1317 8.36612 18.3661C8.1317 18.6005 8 18.9185 8 19.25C8 19.5815 8.1317 19.8995 8.36612 20.1339C8.60054 20.3683 8.91848 20.5 9.25 20.5ZM9.25 13H29.25C29.5815 13 29.8995 12.8683 30.1339 12.6339C30.3683 12.3995 30.5 12.0815 30.5 11.75C30.5 11.4185 30.3683 11.1005 30.1339 10.8661C29.8995 10.6317 29.5815 10.5 29.25 10.5H9.25C8.91848 10.5 8.60054 10.6317 8.36612 10.8661C8.1317 11.1005 8 11.4185 8 11.75C8 12.0815 8.1317 12.3995 8.36612 12.6339C8.60054 12.8683 8.91848 13 9.25 13ZM9.25 28H29.25C29.5815 28 29.8995 27.8683 30.1339 27.6339C30.3683 27.3995 30.5 27.0815 30.5 26.75C30.5 26.4185 30.3683 26.1005 30.1339 25.8661C29.8995 25.6317 29.5815 25.5 29.25 25.5H9.25C8.91848 25.5 8.60054 25.6317 8.36612 25.8661C8.1317 26.1005 8 26.4185 8 26.75C8 27.0815 8.1317 27.3995 8.36612 27.6339C8.60054 27.8683 8.91848 28 9.25 28Z" fill="#563517"/>
</svg>
