<svg width="88" height="88" viewBox="0 0 88 88" fill="none" xmlns="http://www.w3.org/2000/svg">
<g>
<clipPath id="myClip">
    <path d="M22.125 25.25C22.9538 25.25 23.7487 24.9208 24.3347 24.3347C24.9208 23.7487 25.25 22.9538 25.25 22.125C25.1873 19.3473 26.1057 16.6364 27.8438 14.4688C30.264 11.2812 31.5507 7.37691 31.5 3.375C31.5 2.5462 31.1708 1.75134 30.5847 1.16529C29.9987 0.57924 29.2038 0.25 28.375 0.25C27.5462 0.25 26.7513 0.57924 26.1653 1.16529C25.5792 1.75134 25.25 2.5462 25.25 3.375C25.3127 6.1527 24.3943 8.86362 22.6562 11.0312C20.236 14.2188 18.9493 18.1231 19 22.125C19 22.9538 19.3292 23.7487 19.9153 24.3347C20.5013 24.9208 21.2962 25.25 22.125 25.25ZM50.25 25.25C51.0788 25.25 51.8737 24.9208 52.4597 24.3347C53.0458 23.7487 53.375 22.9538 53.375 22.125C53.3123 19.3473 54.2307 16.6364 55.9688 14.4688C58.389 11.2812 59.6757 7.37691 59.625 3.375C59.625 2.5462 59.2958 1.75134 58.7097 1.16529C58.1237 0.57924 57.3288 0.25 56.5 0.25C55.6712 0.25 54.8763 0.57924 54.2903 1.16529C53.7042 1.75134 53.375 2.5462 53.375 3.375C53.4377 6.1527 52.5193 8.86362 50.7812 11.0312C48.361 14.2188 47.0743 18.1231 47.125 22.125C47.125 22.9538 47.4542 23.7487 48.0403 24.3347C48.6263 24.9208 49.4212 25.25 50.25 25.25ZM78.375 31.5H3.375C2.5462 31.5 1.75134 31.8292 1.16529 32.4153C0.57924 33.0013 0.25 33.7962 0.25 34.625V56.5C0.25 61.3514 1.37953 66.1362 3.54915 70.4754C5.71877 74.8147 8.86887 78.5892 12.75 81.5H6.5C5.6712 81.5 4.87634 81.8292 4.29029 82.4153C3.70424 83.0013 3.375 83.7962 3.375 84.625C3.375 85.4538 3.70424 86.2487 4.29029 86.8347C4.87634 87.4208 5.6712 87.75 6.5 87.75H65.875C66.7038 87.75 67.4987 87.4208 68.0847 86.8347C68.6708 86.2487 69 85.4538 69 84.625C69 83.7962 68.6708 83.0013 68.0847 82.4153C67.4987 81.8292 66.7038 81.5 65.875 81.5H59.625C63.9642 78.2643 67.3885 73.957 69.5625 69H78.375C80.8614 69 83.246 68.0123 85.0041 66.2541C86.7623 64.496 87.75 62.1114 87.75 59.625V40.875C87.75 38.3886 86.7623 36.004 85.0041 34.2459C83.246 32.4877 80.8614 31.5 78.375 31.5ZM40.875 81.5H31.5C24.8696 81.5 18.5107 78.8661 13.8223 74.1777C9.13392 69.4893 6.5 63.1304 6.5 56.5V37.75H65.875V56.5C65.875 63.1304 63.2411 69.4893 58.5527 74.1777C53.8643 78.8661 47.5054 81.5 40.875 81.5ZM81.5 59.625C81.5 60.4538 81.1708 61.2487 80.5847 61.8347C79.9987 62.4208 79.2038 62.75 78.375 62.75H71.5C71.9177 60.6929 72.1271 58.599 72.125 56.5V37.75H78.375C79.2038 37.75 79.9987 38.0792 80.5847 38.6653C81.1708 39.2513 81.5 40.0462 81.5 40.875V59.625Z" fill="#F9F9F9"/>
</clipPath>
</g>
</svg>
