<svg width="24" height="30" viewBox="0 0 24 30" fill="none" xmlns="http://www.w3.org/2000/svg">
<path d="M15.1484 11.3783C14.2165 12.001 13.1209 12.3333 12.0002 12.3333C10.4973 12.3333 9.05593 11.7363 7.99322 10.6736C6.93052 9.6109 6.3335 8.16956 6.3335 6.66667C6.3335 5.54591 6.66584 4.45032 7.2885 3.51844C7.91116 2.58656 8.79618 1.86025 9.83162 1.43135C10.8671 1.00246 12.0064 0.890237 13.1057 1.10889C14.2049 1.32754 15.2146 1.86723 16.0071 2.65973C16.7996 3.45223 17.3393 4.46193 17.5579 5.56116C17.7766 6.66038 17.6644 7.79976 17.2355 8.83521C16.8066 9.87066 16.0803 10.7557 15.1484 11.3783ZM22.4716 28.8047C22.3465 28.9298 22.177 29 22.0002 29H2.00016C1.82335 29 1.65378 28.9298 1.52876 28.8047C1.40373 28.6797 1.3335 28.5101 1.3335 28.3333C1.3335 25.5044 2.4573 22.7913 4.45769 20.7909C6.45808 18.7905 9.17119 17.6667 12.0002 17.6667C14.8291 17.6667 17.5422 18.7905 19.5426 20.7909C21.543 22.7913 22.6668 25.5044 22.6668 28.3333C22.6668 28.5102 22.5966 28.6797 22.4716 28.8047Z" stroke="#563517" stroke-width="2"/>
</svg>
