<svg width="32" height="32" viewBox="0 0 32 32" fill="none" xmlns="http://www.w3.org/2000/svg">
<path d="M30.135 21.8113L27.385 19.0613C26.5653 18.2481 25.4588 17.7896 24.3041 17.7847C23.1495 17.7798 22.0392 18.2288 21.2125 19.035C20.7714 19.4786 20.1895 19.7546 19.5669 19.8155C18.9443 19.8764 18.32 19.7185 17.8013 19.3688C15.754 18.0025 13.9953 16.2471 12.625 14.2025C12.2815 13.678 12.1292 13.0512 12.1939 12.4275C12.2585 11.8039 12.5362 11.2216 12.98 10.7788C13.7789 9.95135 14.2221 8.8441 14.2149 7.69399C14.2076 6.54388 13.7505 5.4423 12.9413 4.62501L10.1913 1.87501C9.36795 1.05452 8.25299 0.593811 7.09064 0.593811C5.92829 0.593811 4.81333 1.05452 3.99002 1.87501L3.19877 2.66751C-0.926235 6.79251 -0.617485 15.465 7.96502 24.0425C13.14 29.2188 18.3488 31.3863 22.5725 31.3863C23.8158 31.4277 25.055 31.2212 26.2177 30.7789C27.3805 30.3366 28.4435 29.6673 29.345 28.81L30.1375 28.0175C30.9595 27.1938 31.4209 26.0775 31.4205 24.9139C31.42 23.7502 30.9577 22.6343 30.135 21.8113ZM28.3675 26.25L27.575 27.0425C24.325 30.2925 17.1513 29.6988 9.73002 22.2763C2.30877 14.8538 1.71377 7.67501 4.96377 4.42501L5.75002 3.63376C6.10403 3.28103 6.5834 3.08298 7.08314 3.08298C7.58288 3.08298 8.06225 3.28103 8.41627 3.63376L11.1663 6.38376C11.5138 6.73308 11.7111 7.20441 11.716 7.69717C11.7209 8.18993 11.5331 8.66509 11.1925 9.02126C10.3479 9.8713 9.82098 10.9858 9.70014 12.178C9.5793 13.3702 9.87185 14.5678 10.5288 15.57C12.0857 17.8999 14.0878 19.899 16.42 21.4525C17.4192 22.1095 18.6136 22.4038 19.8037 22.2862C20.9938 22.1686 22.1075 21.6462 22.9588 20.8063C23.3143 20.4617 23.7908 20.2703 24.2858 20.2734C24.7809 20.2764 25.255 20.4736 25.6063 20.8225L28.3563 23.5725C28.5335 23.7472 28.6744 23.9552 28.771 24.1845C28.8675 24.4139 28.9178 24.6601 28.9188 24.9089C28.9199 25.1578 28.8717 25.4044 28.7771 25.6345C28.6825 25.8647 28.5433 26.0739 28.3675 26.25Z" fill="#563517"/>
</svg>
